<svg xmlns="http://www.w3.org/2000/svg" width="1720" height="920" viewBox="0 0 1720 920" font-family='"Alibaba PuHuiTi 3.0","Noto Sans CJK SC","Noto Sans CJK HK",sans-serif'><rect width="1720" height="920" fill="#FFFFFF"/><polygon points="107,470 261,470 283,522.0 261,574 107,574 107,522.0" fill="#EEF2F7" stroke="#CBD5E0" stroke-width="2"/><text x="195.0" y="510.0" font-size="26" fill="#1F2A44" font-weight="700" text-anchor="middle" font-family='"Alibaba PuHuiTi 3.0","Noto Sans CJK SC","Noto Sans CJK HK",sans-serif' dominant-baseline="middle">能力</text><text x="195.0" y="540.0" font-size="26" fill="#1F2A44" font-weight="700" text-anchor="middle" font-family='"Alibaba PuHuiTi 3.0","Noto Sans CJK SC","Noto Sans CJK HK",sans-serif' dominant-baseline="middle">缺口</text><polygon points="297,470 451,470 473,522.0 451,574 297,574 319,522.0" fill="#EEF2F7" stroke="#CBD5E0" stroke-width="2"/><text x="396.0" y="510.0" font-size="26" fill="#1F2A44" font-weight="700" text-anchor="middle" font-family='"Alibaba PuHuiTi 3.0","Noto Sans CJK SC","Noto Sans CJK HK",sans-serif' dominant-baseline="middle">外部</text><text x="396.0" y="540.0" font-size="26" fill="#1F2A44" font-weight="700" text-anchor="middle" font-family='"Alibaba PuHuiTi 3.0","Noto Sans CJK SC","Noto Sans CJK HK",sans-serif' dominant-baseline="middle">发现</text><polygon points="487,470 641,470 663,522.0 641,574 487,574 509,522.0" fill="#EEF2F7" stroke="#CBD5E0" stroke-width="2"/><text x="586.0" y="510.0" font-size="26" fill="#1F2A44" font-weight="700" text-anchor="middle" font-family='"Alibaba PuHuiTi 3.0","Noto Sans CJK SC","Noto Sans CJK HK",sans-serif' dominant-baseline="middle">发出</text><text x="586.0" y="540.0" font-size="26" fill="#1F2A44" font-weight="700" text-anchor="middle" font-family='"Alibaba PuHuiTi 3.0","Noto Sans CJK SC","Noto Sans CJK HK",sans-serif' dominant-baseline="middle">安装</text><polygon points="677,470 831,470 853,522.0 831,574 677,574 699,522.0" fill="#EEF2F7" stroke="#CBD5E0" stroke-width="2"/><text x="776.0" y="510.0" font-size="26" fill="#1F2A44" font-weight="700" text-anchor="middle" font-family='"Alibaba PuHuiTi 3.0","Noto Sans CJK SC","Noto Sans CJK HK",sans-serif' dominant-baseline="middle">解析</text><text x="776.0" y="540.0" font-size="26" fill="#1F2A44" font-weight="700" text-anchor="middle" font-family='"Alibaba PuHuiTi 3.0","Noto Sans CJK SC","Noto Sans CJK HK",sans-serif' dominant-baseline="middle">执行</text><polygon points="867,470 1021,470 1043,522.0 1021,574 867,574 889,522.0" fill="#EEF2F7" stroke="#CBD5E0" stroke-width="2"/><text x="966.0" y="522.0" font-size="26" fill="#1F2A44" font-weight="700" text-anchor="middle" font-family='"Alibaba PuHuiTi 3.0","Noto Sans CJK SC","Noto Sans CJK HK",sans-serif' dominant-baseline="middle">落盘</text><polygon points="1057,470 1211,470 1233,522.0 1211,574 1057,574 1079,522.0" fill="#EEF2F7" stroke="#CBD5E0" stroke-width="2"/><text x="1156.0" y="522.0" font-size="26" fill="#1F2A44" font-weight="700" text-anchor="middle" font-family='"Alibaba PuHuiTi 3.0","Noto Sans CJK SC","Noto Sans CJK HK",sans-serif' dominant-baseline="middle">注册</text><polygon points="1247,470 1401,470 1423,522.0 1401,574 1247,574 1269,522.0" fill="#EEF2F7" stroke="#CBD5E0" stroke-width="2"/><text x="1346.0" y="522.0" font-size="26" fill="#1F2A44" font-weight="700" text-anchor="middle" font-family='"Alibaba PuHuiTi 3.0","Noto Sans CJK SC","Noto Sans CJK HK",sans-serif' dominant-baseline="middle">调用</text><polygon points="1437,470 1591,470 1613,522.0 1591,574 1437,574 1459,522.0" fill="#EEF2F7" stroke="#CBD5E0" stroke-width="2"/><text x="1536.0" y="510.0" font-size="26" fill="#1F2A44" font-weight="700" text-anchor="middle" font-family='"Alibaba PuHuiTi 3.0","Noto Sans CJK SC","Noto Sans CJK HK",sans-serif' dominant-baseline="middle">载荷</text><text x="1536.0" y="540.0" font-size="26" fill="#1F2A44" font-weight="700" text-anchor="middle" font-family='"Alibaba PuHuiTi 3.0","Noto Sans CJK SC","Noto Sans CJK HK",sans-serif' dominant-baseline="middle">&amp;任务</text><text x="860.0" y="56" font-size="30" fill="#1F2A44" font-weight="800" text-anchor="middle" font-family='"Alibaba PuHuiTi 3.0","Noto Sans CJK SC","Noto Sans CJK HK",sans-serif' dominant-baseline="middle">一条 Agent Skill 获取生命周期：三篇各覆盖一段，我测“同一条轨迹”</text><rect x="101" y="150" width="300" height="92" rx="14" ry="14" fill="#DCE8F6" opacity="1" stroke="#2B6CB0" stroke-width="2.5"/><text x="251" y="180" font-size="23" fill="#2B6CB0" font-weight="800" text-anchor="middle" font-family='"JetBrains Maple Mono","Noto Sans Mono",monospace' dominant-baseline="middle">Do Not Mention</text><text x="251" y="212" font-size="17" fill="#1F2A44" font-weight="500" text-anchor="middle" font-family='"Alibaba PuHuiTi 3.0","Noto Sans CJK SC","Noto Sans CJK HK",sans-serif' dominant-baseline="middle">真实市场里有恶意 skill 在等着</text><text x="251" y="235" font-size="17" fill="#1F2A44" font-weight="500" text-anchor="middle" font-family='"Alibaba PuHuiTi 3.0","Noto Sans CJK SC","Noto Sans CJK HK",sans-serif' dominant-baseline="middle">（98,380→157）</text><line x1="251" y1="242" x2="198.4" y2="450.4" stroke="#2B6CB0" stroke-width="3" stroke-linecap="round"/><polygon points="195.0,464.0 192.6,450.2 203.7,453.0" fill="#2B6CB0"/><rect x="483" y="250" width="374" height="58" rx="12" ry="12" fill="#D6EAEA" opacity="1" stroke="#2C7A7B" stroke-width="2.5"/><text x="670.0" y="272" font-size="24" fill="#2C7A7B" font-weight="800" text-anchor="middle" font-family='"JetBrains Maple Mono","Noto Sans Mono",monospace' dominant-baseline="middle">SCR</text><text x="670.0" y="294" font-size="18" fill="#1F2A44" font-weight="500" text-anchor="middle" font-family='"Alibaba PuHuiTi 3.0","Noto Sans CJK SC","Noto Sans CJK HK",sans-serif' dominant-baseline="middle">组合/背书促成安装（mock 环境，从“已出现的安装请求”起步）</text><line x1="670.0" y1="308" x2="670.0" y2="470" stroke="#2C7A7B" stroke-width="2" stroke-dasharray="4 4"/><rect x="483" y="336" width="944" height="58" rx="12" ry="12" fill="#F7DDDF" opacity="1" stroke="#C5303A" stroke-width="2.5"/><text x="955.0" y="358" font-size="24" fill="#C5303A" font-weight="800" text-anchor="middle" font-family='"JetBrains Maple Mono","Noto Sans Mono",monospace' dominant-baseline="middle">HalluSquatting</text><text x="955.0" y="380" font-size="18" fill="#1F2A44" font-weight="500" text-anchor="middle" font-family='"Alibaba PuHuiTi 3.0","Noto Sans CJK SC","Noto Sans CJK HK",sans-serif' dominant-baseline="middle">显式 install → 真实落盘/调用/RCE（用户已有获取意图）</text><line x1="955.0" y1="394" x2="955.0" y2="470" stroke="#C5303A" stroke-width="2" stroke-dasharray="4 4"/><rect x="103" y="630" width="1514" height="128" rx="18" ry="18" fill="#E7DFF7" opacity="1" stroke="#6B46C1" stroke-width="3"/><rect x="103" y="630" width="156" height="128" rx="18" ry="18" fill="#6B46C1" opacity="1"/><rect x="239" y="630" width="20" height="128" rx="0" ry="0" fill="#6B46C1" opacity="1"/><text x="181" y="680" font-size="30" fill="#FFFFFF" font-weight="800" text-anchor="middle" font-family='"Alibaba PuHuiTi 3.0","Noto Sans CJK SC","Noto Sans CJK HK",sans-serif' dominant-baseline="middle">我的</text><text x="181" y="716" font-size="30" fill="#FFFFFF" font-weight="800" text-anchor="middle" font-family='"Alibaba PuHuiTi 3.0","Noto Sans CJK SC","Noto Sans CJK HK",sans-serif' dominant-baseline="middle">问题</text><text x="287" y="670" font-size="24" fill="#1F2A44" font-weight="600" text-anchor="start" font-family='"Alibaba PuHuiTi 3.0","Noto Sans CJK SC","Noto Sans CJK HK",sans-serif' dominant-baseline="middle">触发是普通能力任务（用户零获取意图）、目标一开始未安装 →</text><text x="287" y="706" font-size="23" fill="#6B46C1" font-weight="700" text-anchor="start" font-family='"Alibaba PuHuiTi 3.0","Noto Sans CJK SC","Noto Sans CJK HK",sans-serif' dominant-baseline="middle">要求 agent 自主走完整条链，并逐段测量：到底断在哪一段？由模型还是 budget/parser/policy 决定？</text><line x1="670.0" y1="630" x2="670.0" y2="574" stroke="#6B46C1" stroke-width="2.5" stroke-dasharray="5 4"/><circle cx="670.0" cy="602" r="20" fill="#6B46C1"/><text x="670.0" y="603" font-size="30" fill="#FFFFFF" font-weight="800" text-anchor="middle" font-family='"Alibaba PuHuiTi 3.0","Noto Sans CJK SC","Noto Sans CJK HK",sans-serif' dominant-baseline="middle">?</text></svg>